<svg xmlns="http://www.w3.org/2000/svg" version="1.1" xmlns:xlink="http://www.w3.org/1999/xlink"
  xmlns:svgjs="http://svgjs.dev/svgjs" viewBox="0 0 800 800" opacity="0.1" width="800" height="800">
  <style>
    /* rect {
       fill: red; 
    opacity: 0;
    animation: 5.5s opacity infinite;
    }

    */
  </style>
  <g stroke-width="2" stroke="#64748b" fill="none">
    <rect id="hg2" width="44.44444444444444" height="44.44444444444444" x="0" y="0"></rect>
    <rect id="hg3" width="44.44444444444444" height="44.44444444444444" x="44.44444444444444" y="0"></rect>
    <rect id="hg4" width="44.44444444444444" height="44.44444444444444" x="88.88888888888889" y="0"></rect>
    <rect id="hg5" width="44.44444444444444" height="44.44444444444444" x="133.33333333333331" y="0"></rect>
    <rect id="hg6" width="44.44444444444444" height="44.44444444444444" x="177.77777777777777" y="0"></rect>
    <rect id="hg7" width="44.44444444444444" height="44.44444444444444" x="222.22222222222223" y="0"></rect>
    <rect id="hg8" width="44.44444444444444" height="44.44444444444444" x="266.6666666666667" y="0"></rect>
    <rect id="hg9" width="44.44444444444444" height="44.44444444444444" x="311.11111111111114" y="0"></rect>
    <rect id="hg10" width="44.44444444444444" height="44.44444444444444" x="355.5555555555556" y="0"></rect>
    <rect id="hg11" width="44.44444444444444" height="44.44444444444444" x="400.00000000000006" y="0"></rect>
    <rect id="hg12" width="44.44444444444444" height="44.44444444444444" x="444.4444444444445" y="0"></rect>
    <rect id="hg13" width="44.44444444444444" height="44.44444444444444" x="488.88888888888897" y="0"></rect>
    <rect id="hg14" width="44.44444444444444" height="44.44444444444444" x="533.3333333333334" y="0"></rect>
    <rect id="hg15" width="44.44444444444444" height="44.44444444444444" x="577.7777777777778" y="0"></rect>
    <rect id="hg16" width="44.44444444444444" height="44.44444444444444" x="622.2222222222223" y="0"></rect>
    <rect id="hg17" width="44.44444444444444" height="44.44444444444444" x="666.6666666666667" y="0"></rect>
    <rect id="hg18" width="44.44444444444444" height="44.44444444444444" x="711.1111111111112" y="0"></rect>
    <rect id="hg19" width="44.44444444444444" height="44.44444444444444" x="755.5555555555557" y="0"></rect>
    <rect id="hg20" width="44.44444444444444" height="44.44444444444444" x="800.0000000000001" y="0"></rect>
    <rect id="hg21" width="44.44444444444444" height="44.44444444444444" x="0" y="44.44444444444444"></rect>
    <rect id="hg22" width="44.44444444444444" height="44.44444444444444" x="44.44444444444444" y="44.44444444444444">
    </rect>
    <rect id="hg23" width="44.44444444444444" height="44.44444444444444" x="88.88888888888889" y="44.44444444444444">
    </rect>
    <rect id="hg24" width="44.44444444444444" height="44.44444444444444" x="133.33333333333331" y="44.44444444444444">
    </rect>
    <rect id="hg25" width="44.44444444444444" height="44.44444444444444" x="177.77777777777777" y="44.44444444444444">
    </rect>
    <rect id="hg26" width="44.44444444444444" height="44.44444444444444" x="222.22222222222223" y="44.44444444444444">
    </rect>
    <rect id="hg27" width="44.44444444444444" height="44.44444444444444" x="266.6666666666667" y="44.44444444444444">
    </rect>
    <rect id="hg28" width="44.44444444444444" height="44.44444444444444" x="311.11111111111114" y="44.44444444444444">
    </rect>
    <rect id="hg29" width="44.44444444444444" height="44.44444444444444" x="355.5555555555556" y="44.44444444444444">
    </rect>
    <rect id="hg30" width="44.44444444444444" height="44.44444444444444" x="400.00000000000006" y="44.44444444444444">
    </rect>
    <rect id="hg31" width="44.44444444444444" height="44.44444444444444" x="444.4444444444445" y="44.44444444444444">
    </rect>
    <rect id="hg32" width="44.44444444444444" height="44.44444444444444" x="488.88888888888897" y="44.44444444444444">
    </rect>
    <rect id="hg33" width="44.44444444444444" height="44.44444444444444" x="533.3333333333334" y="44.44444444444444">
    </rect>
    <rect id="hg34" width="44.44444444444444" height="44.44444444444444" x="577.7777777777778" y="44.44444444444444">
    </rect>
    <rect id="hg35" width="44.44444444444444" height="44.44444444444444" x="622.2222222222223" y="44.44444444444444">
    </rect>
    <rect id="hg36" width="44.44444444444444" height="44.44444444444444" x="666.6666666666667" y="44.44444444444444">
    </rect>
    <rect id="hg37" width="44.44444444444444" height="44.44444444444444" x="711.1111111111112" y="44.44444444444444">
    </rect>
    <rect id="hg38" width="44.44444444444444" height="44.44444444444444" x="755.5555555555557" y="44.44444444444444">
    </rect>
    <rect id="hg39" width="44.44444444444444" height="44.44444444444444" x="800.0000000000001" y="44.44444444444444">
    </rect>
    <rect id="hg40" width="44.44444444444444" height="44.44444444444444" x="0" y="88.88888888888889"></rect>
    <rect id="hg41" width="44.44444444444444" height="44.44444444444444" x="44.44444444444444" y="88.88888888888889">
    </rect>
    <rect id="hg42" width="44.44444444444444" height="44.44444444444444" x="88.88888888888889" y="88.88888888888889">
    </rect>
    <rect id="hg43" width="44.44444444444444" height="44.44444444444444" x="133.33333333333331" y="88.88888888888889">
    </rect>
    <rect id="hg44" width="44.44444444444444" height="44.44444444444444" x="177.77777777777777" y="88.88888888888889">
    </rect>
    <rect id="hg45" width="44.44444444444444" height="44.44444444444444" x="222.22222222222223" y="88.88888888888889">
    </rect>
    <rect id="hg46" width="44.44444444444444" height="44.44444444444444" x="266.6666666666667" y="88.88888888888889">
    </rect>
    <rect id="hg47" width="44.44444444444444" height="44.44444444444444" x="311.11111111111114" y="88.88888888888889">
    </rect>
    <rect id="hg48" width="44.44444444444444" height="44.44444444444444" x="355.5555555555556" y="88.88888888888889">
    </rect>
    <rect id="hg49" width="44.44444444444444" height="44.44444444444444" x="400.00000000000006" y="88.88888888888889">
    </rect>
    <rect id="hg50" width="44.44444444444444" height="44.44444444444444" x="444.4444444444445" y="88.88888888888889">
    </rect>
    <rect id="hg51" width="44.44444444444444" height="44.44444444444444" x="488.88888888888897" y="88.88888888888889">
    </rect>
    <rect id="hg52" width="44.44444444444444" height="44.44444444444444" x="533.3333333333334" y="88.88888888888889">
    </rect>
    <rect id="hg53" width="44.44444444444444" height="44.44444444444444" x="577.7777777777778" y="88.88888888888889">
    </rect>
    <rect id="hg54" width="44.44444444444444" height="44.44444444444444" x="622.2222222222223" y="88.88888888888889">
    </rect>
    <rect id="hg55" width="44.44444444444444" height="44.44444444444444" x="666.6666666666667" y="88.88888888888889">
    </rect>
    <rect id="hg56" width="44.44444444444444" height="44.44444444444444" x="711.1111111111112" y="88.88888888888889">
    </rect>
    <rect id="hg57" width="44.44444444444444" height="44.44444444444444" x="755.5555555555557" y="88.88888888888889">
    </rect>
    <rect id="hg58" width="44.44444444444444" height="44.44444444444444" x="800.0000000000001" y="88.88888888888889">
    </rect>
    <rect id="hg59" width="44.44444444444444" height="44.44444444444444" x="0" y="133.33333333333331"></rect>
    <rect id="hg60" width="44.44444444444444" height="44.44444444444444" x="44.44444444444444" y="133.33333333333331">
    </rect>
    <rect id="hg61" width="44.44444444444444" height="44.44444444444444" x="88.88888888888889" y="133.33333333333331">
    </rect>
    <rect id="hg62" width="44.44444444444444" height="44.44444444444444" x="133.33333333333331" y="133.33333333333331">
    </rect>
    <rect id="hg63" width="44.44444444444444" height="44.44444444444444" x="177.77777777777777" y="133.33333333333331">
    </rect>
    <rect id="hg64" width="44.44444444444444" height="44.44444444444444" x="222.22222222222223" y="133.33333333333331">
    </rect>
    <rect id="hg65" width="44.44444444444444" height="44.44444444444444" x="266.6666666666667" y="133.33333333333331">
    </rect>
    <rect id="hg66" width="44.44444444444444" height="44.44444444444444" x="311.11111111111114" y="133.33333333333331">
    </rect>
    <rect id="hg67" width="44.44444444444444" height="44.44444444444444" x="355.5555555555556" y="133.33333333333331">
    </rect>
    <rect id="hg68" width="44.44444444444444" height="44.44444444444444" x="400.00000000000006" y="133.33333333333331">
    </rect>
    <rect id="hg69" width="44.44444444444444" height="44.44444444444444" x="444.4444444444445" y="133.33333333333331">
    </rect>
    <rect id="hg70" width="44.44444444444444" height="44.44444444444444" x="488.88888888888897" y="133.33333333333331">
    </rect>
    <rect id="hg71" width="44.44444444444444" height="44.44444444444444" x="533.3333333333334" y="133.33333333333331">
    </rect>
    <rect id="hg72" width="44.44444444444444" height="44.44444444444444" x="577.7777777777778" y="133.33333333333331">
    </rect>
    <rect id="hg73" width="44.44444444444444" height="44.44444444444444" x="622.2222222222223" y="133.33333333333331">
    </rect>
    <rect id="hg74" width="44.44444444444444" height="44.44444444444444" x="666.6666666666667" y="133.33333333333331">
    </rect>
    <rect id="hg75" width="44.44444444444444" height="44.44444444444444" x="711.1111111111112" y="133.33333333333331">
    </rect>
    <rect id="hg76" width="44.44444444444444" height="44.44444444444444" x="755.5555555555557" y="133.33333333333331">
    </rect>
    <rect id="hg77" width="44.44444444444444" height="44.44444444444444" x="800.0000000000001" y="133.33333333333331">
    </rect>
    <rect id="hg78" width="44.44444444444444" height="44.44444444444444" x="0" y="177.77777777777777"></rect>
    <rect id="hg79" width="44.44444444444444" height="44.44444444444444" x="44.44444444444444" y="177.77777777777777">
    </rect>
    <rect id="hg80" width="44.44444444444444" height="44.44444444444444" x="88.88888888888889" y="177.77777777777777">
    </rect>
    <rect id="hg81" width="44.44444444444444" height="44.44444444444444" x="133.33333333333331" y="177.77777777777777">
    </rect>
    <rect id="hg82" width="44.44444444444444" height="44.44444444444444" x="177.77777777777777" y="177.77777777777777">
    </rect>
    <rect id="hg83" width="44.44444444444444" height="44.44444444444444" x="222.22222222222223" y="177.77777777777777">
    </rect>
    <rect id="hg84" width="44.44444444444444" height="44.44444444444444" x="266.6666666666667" y="177.77777777777777">
    </rect>
    <rect id="hg85" width="44.44444444444444" height="44.44444444444444" x="311.11111111111114" y="177.77777777777777">
    </rect>
    <rect id="hg86" width="44.44444444444444" height="44.44444444444444" x="355.5555555555556" y="177.77777777777777">
    </rect>
    <rect id="hg87" width="44.44444444444444" height="44.44444444444444" x="400.00000000000006" y="177.77777777777777">
    </rect>
    <rect id="hg88" width="44.44444444444444" height="44.44444444444444" x="444.4444444444445" y="177.77777777777777">
    </rect>
    <rect id="hg89" width="44.44444444444444" height="44.44444444444444" x="488.88888888888897" y="177.77777777777777">
    </rect>
    <rect id="hg90" width="44.44444444444444" height="44.44444444444444" x="533.3333333333334" y="177.77777777777777">
    </rect>
    <rect id="hg91" width="44.44444444444444" height="44.44444444444444" x="577.7777777777778" y="177.77777777777777">
    </rect>
    <rect id="hg92" width="44.44444444444444" height="44.44444444444444" x="622.2222222222223" y="177.77777777777777">
    </rect>
    <rect id="hg93" width="44.44444444444444" height="44.44444444444444" x="666.6666666666667" y="177.77777777777777">
    </rect>
    <rect id="hg94" width="44.44444444444444" height="44.44444444444444" x="711.1111111111112" y="177.77777777777777">
    </rect>
    <rect id="hg95" width="44.44444444444444" height="44.44444444444444" x="755.5555555555557" y="177.77777777777777">
    </rect>
    <rect id="hg96" width="44.44444444444444" height="44.44444444444444" x="800.0000000000001" y="177.77777777777777">
    </rect>
    <rect id="hg97" width="44.44444444444444" height="44.44444444444444" x="0" y="222.22222222222223"></rect>
    <rect id="hg98" width="44.44444444444444" height="44.44444444444444" x="44.44444444444444" y="222.22222222222223">
    </rect>
    <rect id="hg99" width="44.44444444444444" height="44.44444444444444" x="88.88888888888889" y="222.22222222222223">
    </rect>
    <rect id="hg100" width="44.44444444444444" height="44.44444444444444" x="133.33333333333331" y="222.22222222222223">
    </rect>
    <rect id="hg101" width="44.44444444444444" height="44.44444444444444" x="177.77777777777777" y="222.22222222222223">
    </rect>
    <rect id="hg102" width="44.44444444444444" height="44.44444444444444" x="222.22222222222223" y="222.22222222222223">
    </rect>
    <rect id="hg103" width="44.44444444444444" height="44.44444444444444" x="266.6666666666667" y="222.22222222222223">
    </rect>
    <rect id="hg104" width="44.44444444444444" height="44.44444444444444" x="311.11111111111114" y="222.22222222222223">
    </rect>
    <rect id="hg105" width="44.44444444444444" height="44.44444444444444" x="355.5555555555556" y="222.22222222222223">
    </rect>
    <rect id="hg106" width="44.44444444444444" height="44.44444444444444" x="400.00000000000006" y="222.22222222222223">
    </rect>
    <rect id="hg107" width="44.44444444444444" height="44.44444444444444" x="444.4444444444445" y="222.22222222222223">
    </rect>
    <rect id="hg108" width="44.44444444444444" height="44.44444444444444" x="488.88888888888897" y="222.22222222222223">
    </rect>
    <rect id="hg109" width="44.44444444444444" height="44.44444444444444" x="533.3333333333334" y="222.22222222222223">
    </rect>
    <rect id="hg110" width="44.44444444444444" height="44.44444444444444" x="577.7777777777778" y="222.22222222222223">
    </rect>
    <rect id="hg111" width="44.44444444444444" height="44.44444444444444" x="622.2222222222223" y="222.22222222222223">
    </rect>
    <rect id="hg112" width="44.44444444444444" height="44.44444444444444" x="666.6666666666667" y="222.22222222222223">
    </rect>
    <rect id="hg113" width="44.44444444444444" height="44.44444444444444" x="711.1111111111112" y="222.22222222222223">
    </rect>
    <rect id="hg114" width="44.44444444444444" height="44.44444444444444" x="755.5555555555557" y="222.22222222222223">
    </rect>
    <rect id="hg115" width="44.44444444444444" height="44.44444444444444" x="800.0000000000001" y="222.22222222222223">
    </rect>
    <rect id="hg116" width="44.44444444444444" height="44.44444444444444" x="0" y="266.6666666666667"></rect>
    <rect id="hg117" width="44.44444444444444" height="44.44444444444444" x="44.44444444444444" y="266.6666666666667">
    </rect>
    <rect id="hg118" width="44.44444444444444" height="44.44444444444444" x="88.88888888888889" y="266.6666666666667">
    </rect>
    <rect id="hg119" width="44.44444444444444" height="44.44444444444444" x="133.33333333333331" y="266.6666666666667">
    </rect>
    <rect id="hg120" width="44.44444444444444" height="44.44444444444444" x="177.77777777777777" y="266.6666666666667">
    </rect>
    <rect id="hg121" width="44.44444444444444" height="44.44444444444444" x="222.22222222222223" y="266.6666666666667">
    </rect>
    <rect id="hg122" width="44.44444444444444" height="44.44444444444444" x="266.6666666666667" y="266.6666666666667">
    </rect>
    <rect id="hg123" width="44.44444444444444" height="44.44444444444444" x="311.11111111111114" y="266.6666666666667">
    </rect>
    <rect id="hg124" width="44.44444444444444" height="44.44444444444444" x="355.5555555555556" y="266.6666666666667">
    </rect>
    <rect id="hg125" width="44.44444444444444" height="44.44444444444444" x="400.00000000000006" y="266.6666666666667">
    </rect>
    <rect id="hg126" width="44.44444444444444" height="44.44444444444444" x="444.4444444444445" y="266.6666666666667">
    </rect>
    <rect id="hg127" width="44.44444444444444" height="44.44444444444444" x="488.88888888888897" y="266.6666666666667">
    </rect>
    <rect id="hg128" width="44.44444444444444" height="44.44444444444444" x="533.3333333333334" y="266.6666666666667">
    </rect>
    <rect id="hg129" width="44.44444444444444" height="44.44444444444444" x="577.7777777777778" y="266.6666666666667">
    </rect>
    <rect id="hg130" width="44.44444444444444" height="44.44444444444444" x="622.2222222222223" y="266.6666666666667">
    </rect>
    <rect id="hg131" width="44.44444444444444" height="44.44444444444444" x="666.6666666666667" y="266.6666666666667">
    </rect>
    <rect id="hg132" width="44.44444444444444" height="44.44444444444444" x="711.1111111111112" y="266.6666666666667">
    </rect>
    <rect id="hg133" width="44.44444444444444" height="44.44444444444444" x="755.5555555555557" y="266.6666666666667">
    </rect>
    <rect id="hg134" width="44.44444444444444" height="44.44444444444444" x="800.0000000000001" y="266.6666666666667">
    </rect>
    <rect id="hg135" width="44.44444444444444" height="44.44444444444444" x="0" y="311.11111111111114"></rect>
    <rect id="hg136" width="44.44444444444444" height="44.44444444444444" x="44.44444444444444" y="311.11111111111114">
    </rect>
    <rect id="hg137" width="44.44444444444444" height="44.44444444444444" x="88.88888888888889" y="311.11111111111114">
    </rect>
    <rect id="hg138" width="44.44444444444444" height="44.44444444444444" x="133.33333333333331" y="311.11111111111114">
    </rect>
    <rect id="hg139" width="44.44444444444444" height="44.44444444444444" x="177.77777777777777" y="311.11111111111114">
    </rect>
    <rect id="hg140" width="44.44444444444444" height="44.44444444444444" x="222.22222222222223" y="311.11111111111114">
    </rect>
    <rect id="hg141" width="44.44444444444444" height="44.44444444444444" x="266.6666666666667" y="311.11111111111114">
    </rect>
    <rect id="hg142" width="44.44444444444444" height="44.44444444444444" x="311.11111111111114" y="311.11111111111114">
    </rect>
    <rect id="hg143" width="44.44444444444444" height="44.44444444444444" x="355.5555555555556" y="311.11111111111114">
    </rect>
    <rect id="hg144" width="44.44444444444444" height="44.44444444444444" x="400.00000000000006" y="311.11111111111114">
    </rect>
    <rect id="hg145" width="44.44444444444444" height="44.44444444444444" x="444.4444444444445" y="311.11111111111114">
    </rect>
    <rect id="hg146" width="44.44444444444444" height="44.44444444444444" x="488.88888888888897" y="311.11111111111114">
    </rect>
    <rect id="hg147" width="44.44444444444444" height="44.44444444444444" x="533.3333333333334" y="311.11111111111114">
    </rect>
    <rect id="hg148" width="44.44444444444444" height="44.44444444444444" x="577.7777777777778" y="311.11111111111114">
    </rect>
    <rect id="hg149" width="44.44444444444444" height="44.44444444444444" x="622.2222222222223" y="311.11111111111114">
    </rect>
    <rect id="hg150" width="44.44444444444444" height="44.44444444444444" x="666.6666666666667" y="311.11111111111114">
    </rect>
    <rect id="hg151" width="44.44444444444444" height="44.44444444444444" x="711.1111111111112" y="311.11111111111114">
    </rect>
    <rect id="hg152" width="44.44444444444444" height="44.44444444444444" x="755.5555555555557" y="311.11111111111114">
    </rect>
    <rect id="hg153" width="44.44444444444444" height="44.44444444444444" x="800.0000000000001" y="311.11111111111114">
    </rect>
    <rect id="hg154" width="44.44444444444444" height="44.44444444444444" x="0" y="355.5555555555556"></rect>
    <rect id="hg155" width="44.44444444444444" height="44.44444444444444" x="44.44444444444444" y="355.5555555555556">
    </rect>
    <rect id="hg156" width="44.44444444444444" height="44.44444444444444" x="88.88888888888889" y="355.5555555555556">
    </rect>
    <rect id="hg157" width="44.44444444444444" height="44.44444444444444" x="133.33333333333331" y="355.5555555555556">
    </rect>
    <rect id="hg158" width="44.44444444444444" height="44.44444444444444" x="177.77777777777777" y="355.5555555555556">
    </rect>
    <rect id="hg159" width="44.44444444444444" height="44.44444444444444" x="222.22222222222223" y="355.5555555555556">
    </rect>
    <rect id="hg160" width="44.44444444444444" height="44.44444444444444" x="266.6666666666667" y="355.5555555555556">
    </rect>
    <rect id="hg161" width="44.44444444444444" height="44.44444444444444" x="311.11111111111114" y="355.5555555555556">
    </rect>
    <rect id="hg162" width="44.44444444444444" height="44.44444444444444" x="355.5555555555556" y="355.5555555555556">
    </rect>
    <rect id="hg163" width="44.44444444444444" height="44.44444444444444" x="400.00000000000006" y="355.5555555555556">
    </rect>
    <rect id="hg164" width="44.44444444444444" height="44.44444444444444" x="444.4444444444445" y="355.5555555555556">
    </rect>
    <rect id="hg165" width="44.44444444444444" height="44.44444444444444" x="488.88888888888897" y="355.5555555555556">
    </rect>
    <rect id="hg166" width="44.44444444444444" height="44.44444444444444" x="533.3333333333334" y="355.5555555555556">
    </rect>
    <rect id="hg167" width="44.44444444444444" height="44.44444444444444" x="577.7777777777778" y="355.5555555555556">
    </rect>
    <rect id="hg168" width="44.44444444444444" height="44.44444444444444" x="622.2222222222223" y="355.5555555555556">
    </rect>
    <rect id="hg169" width="44.44444444444444" height="44.44444444444444" x="666.6666666666667" y="355.5555555555556">
    </rect>
    <rect id="hg170" width="44.44444444444444" height="44.44444444444444" x="711.1111111111112" y="355.5555555555556">
    </rect>
    <rect id="hg171" width="44.44444444444444" height="44.44444444444444" x="755.5555555555557" y="355.5555555555556">
    </rect>
    <rect id="hg172" width="44.44444444444444" height="44.44444444444444" x="800.0000000000001" y="355.5555555555556">
    </rect>
    <rect id="hg173" width="44.44444444444444" height="44.44444444444444" x="0" y="400.00000000000006"></rect>
    <rect id="hg174" width="44.44444444444444" height="44.44444444444444" x="44.44444444444444" y="400.00000000000006">
    </rect>
    <rect id="hg175" width="44.44444444444444" height="44.44444444444444" x="88.88888888888889" y="400.00000000000006">
    </rect>
    <rect id="hg176" width="44.44444444444444" height="44.44444444444444" x="133.33333333333331" y="400.00000000000006">
    </rect>
    <rect id="hg177" width="44.44444444444444" height="44.44444444444444" x="177.77777777777777" y="400.00000000000006">
    </rect>
    <rect id="hg178" width="44.44444444444444" height="44.44444444444444" x="222.22222222222223" y="400.00000000000006">
    </rect>
    <rect id="hg179" width="44.44444444444444" height="44.44444444444444" x="266.6666666666667" y="400.00000000000006">
    </rect>
    <rect id="hg180" width="44.44444444444444" height="44.44444444444444" x="311.11111111111114" y="400.00000000000006">
    </rect>
    <rect id="hg181" width="44.44444444444444" height="44.44444444444444" x="355.5555555555556" y="400.00000000000006">
    </rect>
    <rect id="hg182" width="44.44444444444444" height="44.44444444444444" x="400.00000000000006" y="400.00000000000006">
    </rect>
    <rect id="hg183" width="44.44444444444444" height="44.44444444444444" x="444.4444444444445" y="400.00000000000006">
    </rect>
    <rect id="hg184" width="44.44444444444444" height="44.44444444444444" x="488.88888888888897" y="400.00000000000006">
    </rect>
    <rect id="hg185" width="44.44444444444444" height="44.44444444444444" x="533.3333333333334" y="400.00000000000006">
    </rect>
    <rect id="hg186" width="44.44444444444444" height="44.44444444444444" x="577.7777777777778" y="400.00000000000006">
    </rect>
    <rect id="hg187" width="44.44444444444444" height="44.44444444444444" x="622.2222222222223" y="400.00000000000006">
    </rect>
    <rect id="hg188" width="44.44444444444444" height="44.44444444444444" x="666.6666666666667" y="400.00000000000006">
    </rect>
    <rect id="hg189" width="44.44444444444444" height="44.44444444444444" x="711.1111111111112" y="400.00000000000006">
    </rect>
    <rect id="hg190" width="44.44444444444444" height="44.44444444444444" x="755.5555555555557" y="400.00000000000006">
    </rect>
    <rect id="hg191" width="44.44444444444444" height="44.44444444444444" x="800.0000000000001" y="400.00000000000006">
    </rect>
    <rect id="hg192" width="44.44444444444444" height="44.44444444444444" x="0" y="444.4444444444445"></rect>
    <rect id="hg193" width="44.44444444444444" height="44.44444444444444" x="44.44444444444444" y="444.4444444444445">
    </rect>
    <rect id="hg194" width="44.44444444444444" height="44.44444444444444" x="88.88888888888889" y="444.4444444444445">
    </rect>
    <rect id="hg195" width="44.44444444444444" height="44.44444444444444" x="133.33333333333331" y="444.4444444444445">
    </rect>
    <rect id="hg196" width="44.44444444444444" height="44.44444444444444" x="177.77777777777777" y="444.4444444444445">
    </rect>
    <rect id="hg197" width="44.44444444444444" height="44.44444444444444" x="222.22222222222223" y="444.4444444444445">
    </rect>
    <rect id="hg198" width="44.44444444444444" height="44.44444444444444" x="266.6666666666667" y="444.4444444444445">
    </rect>
    <rect id="hg199" width="44.44444444444444" height="44.44444444444444" x="311.11111111111114" y="444.4444444444445">
    </rect>
    <rect id="hg200" width="44.44444444444444" height="44.44444444444444" x="355.5555555555556" y="444.4444444444445">
    </rect>
    <rect id="hg201" width="44.44444444444444" height="44.44444444444444" x="400.00000000000006" y="444.4444444444445">
    </rect>
    <rect id="hg202" width="44.44444444444444" height="44.44444444444444" x="444.4444444444445" y="444.4444444444445">
    </rect>
    <rect id="hg203" width="44.44444444444444" height="44.44444444444444" x="488.88888888888897" y="444.4444444444445">
    </rect>
    <rect id="hg204" width="44.44444444444444" height="44.44444444444444" x="533.3333333333334" y="444.4444444444445">
    </rect>
    <rect id="hg205" width="44.44444444444444" height="44.44444444444444" x="577.7777777777778" y="444.4444444444445">
    </rect>
    <rect id="hg206" width="44.44444444444444" height="44.44444444444444" x="622.2222222222223" y="444.4444444444445">
    </rect>
    <rect id="hg207" width="44.44444444444444" height="44.44444444444444" x="666.6666666666667" y="444.4444444444445">
    </rect>
    <rect id="hg208" width="44.44444444444444" height="44.44444444444444" x="711.1111111111112" y="444.4444444444445">
    </rect>
    <rect id="hg209" width="44.44444444444444" height="44.44444444444444" x="755.5555555555557" y="444.4444444444445">
    </rect>
    <rect id="hg210" width="44.44444444444444" height="44.44444444444444" x="800.0000000000001" y="444.4444444444445">
    </rect>
    <rect id="hg211" width="44.44444444444444" height="44.44444444444444" x="0" y="488.88888888888897"></rect>
    <rect id="hg212" width="44.44444444444444" height="44.44444444444444" x="44.44444444444444" y="488.88888888888897">
    </rect>
    <rect id="hg213" width="44.44444444444444" height="44.44444444444444" x="88.88888888888889" y="488.88888888888897">
    </rect>
    <rect id="hg214" width="44.44444444444444" height="44.44444444444444" x="133.33333333333331" y="488.88888888888897">
    </rect>
    <rect id="hg215" width="44.44444444444444" height="44.44444444444444" x="177.77777777777777" y="488.88888888888897">
    </rect>
    <rect id="hg216" width="44.44444444444444" height="44.44444444444444" x="222.22222222222223" y="488.88888888888897">
    </rect>
    <rect id="hg217" width="44.44444444444444" height="44.44444444444444" x="266.6666666666667" y="488.88888888888897">
    </rect>
    <rect id="hg218" width="44.44444444444444" height="44.44444444444444" x="311.11111111111114" y="488.88888888888897">
    </rect>
    <rect id="hg219" width="44.44444444444444" height="44.44444444444444" x="355.5555555555556" y="488.88888888888897">
    </rect>
    <rect id="hg220" width="44.44444444444444" height="44.44444444444444" x="400.00000000000006" y="488.88888888888897">
    </rect>
    <rect id="hg221" width="44.44444444444444" height="44.44444444444444" x="444.4444444444445" y="488.88888888888897">
    </rect>
    <rect id="hg222" width="44.44444444444444" height="44.44444444444444" x="488.88888888888897" y="488.88888888888897">
    </rect>
    <rect id="hg223" width="44.44444444444444" height="44.44444444444444" x="533.3333333333334" y="488.88888888888897">
    </rect>
    <rect id="hg224" width="44.44444444444444" height="44.44444444444444" x="577.7777777777778" y="488.88888888888897">
    </rect>
    <rect id="hg225" width="44.44444444444444" height="44.44444444444444" x="622.2222222222223" y="488.88888888888897">
    </rect>
    <rect id="hg226" width="44.44444444444444" height="44.44444444444444" x="666.6666666666667" y="488.88888888888897">
    </rect>
    <rect id="hg227" width="44.44444444444444" height="44.44444444444444" x="711.1111111111112" y="488.88888888888897">
    </rect>
    <rect id="hg228" width="44.44444444444444" height="44.44444444444444" x="755.5555555555557" y="488.88888888888897">
    </rect>
    <rect id="hg229" width="44.44444444444444" height="44.44444444444444" x="800.0000000000001" y="488.88888888888897">
    </rect>
    <rect id="hg230" width="44.44444444444444" height="44.44444444444444" x="0" y="533.3333333333334"></rect>
    <rect id="hg231" width="44.44444444444444" height="44.44444444444444" x="44.44444444444444" y="533.3333333333334">
    </rect>
    <rect id="hg232" width="44.44444444444444" height="44.44444444444444" x="88.88888888888889" y="533.3333333333334">
    </rect>
    <rect id="hg233" width="44.44444444444444" height="44.44444444444444" x="133.33333333333331" y="533.3333333333334">
    </rect>
    <rect id="hg234" width="44.44444444444444" height="44.44444444444444" x="177.77777777777777" y="533.3333333333334">
    </rect>
    <rect id="hg235" width="44.44444444444444" height="44.44444444444444" x="222.22222222222223" y="533.3333333333334">
    </rect>
    <rect id="hg236" width="44.44444444444444" height="44.44444444444444" x="266.6666666666667" y="533.3333333333334">
    </rect>
    <rect id="hg237" width="44.44444444444444" height="44.44444444444444" x="311.11111111111114" y="533.3333333333334">
    </rect>
    <rect id="hg238" width="44.44444444444444" height="44.44444444444444" x="355.5555555555556" y="533.3333333333334">
    </rect>
    <rect id="hg239" width="44.44444444444444" height="44.44444444444444" x="400.00000000000006" y="533.3333333333334">
    </rect>
    <rect id="hg240" width="44.44444444444444" height="44.44444444444444" x="444.4444444444445" y="533.3333333333334">
    </rect>
    <rect id="hg241" width="44.44444444444444" height="44.44444444444444" x="488.88888888888897" y="533.3333333333334">
    </rect>
    <rect id="hg242" width="44.44444444444444" height="44.44444444444444" x="533.3333333333334" y="533.3333333333334">
    </rect>
    <rect id="hg243" width="44.44444444444444" height="44.44444444444444" x="577.7777777777778" y="533.3333333333334">
    </rect>
    <rect id="hg244" width="44.44444444444444" height="44.44444444444444" x="622.2222222222223" y="533.3333333333334">
    </rect>
    <rect id="hg245" width="44.44444444444444" height="44.44444444444444" x="666.6666666666667" y="533.3333333333334">
    </rect>
    <rect id="hg246" width="44.44444444444444" height="44.44444444444444" x="711.1111111111112" y="533.3333333333334">
    </rect>
    <rect id="hg247" width="44.44444444444444" height="44.44444444444444" x="755.5555555555557" y="533.3333333333334">
    </rect>
    <rect id="hg248" width="44.44444444444444" height="44.44444444444444" x="800.0000000000001" y="533.3333333333334">
    </rect>
    <rect id="hg249" width="44.44444444444444" height="44.44444444444444" x="0" y="577.7777777777778"></rect>
    <rect id="hg250" width="44.44444444444444" height="44.44444444444444" x="44.44444444444444" y="577.7777777777778">
    </rect>
    <rect id="hg251" width="44.44444444444444" height="44.44444444444444" x="88.88888888888889" y="577.7777777777778">
    </rect>
    <rect id="hg252" width="44.44444444444444" height="44.44444444444444" x="133.33333333333331" y="577.7777777777778">
    </rect>
    <rect id="hg253" width="44.44444444444444" height="44.44444444444444" x="177.77777777777777" y="577.7777777777778">
    </rect>
    <rect id="hg254" width="44.44444444444444" height="44.44444444444444" x="222.22222222222223" y="577.7777777777778">
    </rect>
    <rect id="hg255" width="44.44444444444444" height="44.44444444444444" x="266.6666666666667" y="577.7777777777778">
    </rect>
    <rect id="hg256" width="44.44444444444444" height="44.44444444444444" x="311.11111111111114" y="577.7777777777778">
    </rect>
    <rect id="hg257" width="44.44444444444444" height="44.44444444444444" x="355.5555555555556" y="577.7777777777778">
    </rect>
    <rect id="hg258" width="44.44444444444444" height="44.44444444444444" x="400.00000000000006" y="577.7777777777778">
    </rect>
    <rect id="hg259" width="44.44444444444444" height="44.44444444444444" x="444.4444444444445" y="577.7777777777778">
    </rect>
    <rect id="hg260" width="44.44444444444444" height="44.44444444444444" x="488.88888888888897" y="577.7777777777778">
    </rect>
    <rect id="hg261" width="44.44444444444444" height="44.44444444444444" x="533.3333333333334" y="577.7777777777778">
    </rect>
    <rect id="hg262" width="44.44444444444444" height="44.44444444444444" x="577.7777777777778" y="577.7777777777778">
    </rect>
    <rect id="hg263" width="44.44444444444444" height="44.44444444444444" x="622.2222222222223" y="577.7777777777778">
    </rect>
    <rect id="hg264" width="44.44444444444444" height="44.44444444444444" x="666.6666666666667" y="577.7777777777778">
    </rect>
    <rect id="hg265" width="44.44444444444444" height="44.44444444444444" x="711.1111111111112" y="577.7777777777778">
    </rect>
    <rect id="hg266" width="44.44444444444444" height="44.44444444444444" x="755.5555555555557" y="577.7777777777778">
    </rect>
    <rect id="hg267" width="44.44444444444444" height="44.44444444444444" x="800.0000000000001" y="577.7777777777778">
    </rect>
    <rect id="hg268" width="44.44444444444444" height="44.44444444444444" x="0" y="622.2222222222223"></rect>
    <rect id="hg269" width="44.44444444444444" height="44.44444444444444" x="44.44444444444444" y="622.2222222222223">
    </rect>
    <rect id="hg270" width="44.44444444444444" height="44.44444444444444" x="88.88888888888889" y="622.2222222222223">
    </rect>
    <rect id="hg271" width="44.44444444444444" height="44.44444444444444" x="133.33333333333331" y="622.2222222222223">
    </rect>
    <rect id="hg272" width="44.44444444444444" height="44.44444444444444" x="177.77777777777777" y="622.2222222222223">
    </rect>
    <rect id="hg273" width="44.44444444444444" height="44.44444444444444" x="222.22222222222223" y="622.2222222222223">
    </rect>
    <rect id="hg274" width="44.44444444444444" height="44.44444444444444" x="266.6666666666667" y="622.2222222222223">
    </rect>
    <rect id="hg275" width="44.44444444444444" height="44.44444444444444" x="311.11111111111114" y="622.2222222222223">
    </rect>
    <rect id="hg276" width="44.44444444444444" height="44.44444444444444" x="355.5555555555556" y="622.2222222222223">
    </rect>
    <rect id="hg277" width="44.44444444444444" height="44.44444444444444" x="400.00000000000006" y="622.2222222222223">
    </rect>
    <rect id="hg278" width="44.44444444444444" height="44.44444444444444" x="444.4444444444445" y="622.2222222222223">
    </rect>
    <rect id="hg279" width="44.44444444444444" height="44.44444444444444" x="488.88888888888897" y="622.2222222222223">
    </rect>
    <rect id="hg280" width="44.44444444444444" height="44.44444444444444" x="533.3333333333334" y="622.2222222222223">
    </rect>
    <rect id="hg281" width="44.44444444444444" height="44.44444444444444" x="577.7777777777778" y="622.2222222222223">
    </rect>
    <rect id="hg282" width="44.44444444444444" height="44.44444444444444" x="622.2222222222223" y="622.2222222222223">
    </rect>
    <rect id="hg283" width="44.44444444444444" height="44.44444444444444" x="666.6666666666667" y="622.2222222222223">
    </rect>
    <rect id="hg284" width="44.44444444444444" height="44.44444444444444" x="711.1111111111112" y="622.2222222222223">
    </rect>
    <rect id="hg285" width="44.44444444444444" height="44.44444444444444" x="755.5555555555557" y="622.2222222222223">
    </rect>
    <rect id="hg286" width="44.44444444444444" height="44.44444444444444" x="800.0000000000001" y="622.2222222222223">
    </rect>
    <rect id="hg287" width="44.44444444444444" height="44.44444444444444" x="0" y="666.6666666666667"></rect>
    <rect id="hg288" width="44.44444444444444" height="44.44444444444444" x="44.44444444444444" y="666.6666666666667">
    </rect>
    <rect id="hg289" width="44.44444444444444" height="44.44444444444444" x="88.88888888888889" y="666.6666666666667">
    </rect>
    <rect id="hg290" width="44.44444444444444" height="44.44444444444444" x="133.33333333333331" y="666.6666666666667">
    </rect>
    <rect id="hg291" width="44.44444444444444" height="44.44444444444444" x="177.77777777777777" y="666.6666666666667">
    </rect>
    <rect id="hg292" width="44.44444444444444" height="44.44444444444444" x="222.22222222222223" y="666.6666666666667">
    </rect>
    <rect id="hg293" width="44.44444444444444" height="44.44444444444444" x="266.6666666666667" y="666.6666666666667">
    </rect>
    <rect id="hg294" width="44.44444444444444" height="44.44444444444444" x="311.11111111111114" y="666.6666666666667">
    </rect>
    <rect id="hg295" width="44.44444444444444" height="44.44444444444444" x="355.5555555555556" y="666.6666666666667">
    </rect>
    <rect id="hg296" width="44.44444444444444" height="44.44444444444444" x="400.00000000000006" y="666.6666666666667">
    </rect>
    <rect id="hg297" width="44.44444444444444" height="44.44444444444444" x="444.4444444444445" y="666.6666666666667">
    </rect>
    <rect id="hg298" width="44.44444444444444" height="44.44444444444444" x="488.88888888888897" y="666.6666666666667">
    </rect>
    <rect id="hg299" width="44.44444444444444" height="44.44444444444444" x="533.3333333333334" y="666.6666666666667">
    </rect>
    <rect id="hg300" width="44.44444444444444" height="44.44444444444444" x="577.7777777777778" y="666.6666666666667">
    </rect>
    <rect id="hg301" width="44.44444444444444" height="44.44444444444444" x="622.2222222222223" y="666.6666666666667">
    </rect>
    <rect id="hg302" width="44.44444444444444" height="44.44444444444444" x="666.6666666666667" y="666.6666666666667">
    </rect>
    <rect id="hg303" width="44.44444444444444" height="44.44444444444444" x="711.1111111111112" y="666.6666666666667">
    </rect>
    <rect id="hg304" width="44.44444444444444" height="44.44444444444444" x="755.5555555555557" y="666.6666666666667">
    </rect>
    <rect id="hg305" width="44.44444444444444" height="44.44444444444444" x="800.0000000000001" y="666.6666666666667">
    </rect>
    <rect id="hg306" width="44.44444444444444" height="44.44444444444444" x="0" y="711.1111111111112"></rect>
    <rect id="hg307" width="44.44444444444444" height="44.44444444444444" x="44.44444444444444" y="711.1111111111112">
    </rect>
    <rect id="hg308" width="44.44444444444444" height="44.44444444444444" x="88.88888888888889" y="711.1111111111112">
    </rect>
    <rect id="hg309" width="44.44444444444444" height="44.44444444444444" x="133.33333333333331" y="711.1111111111112">
    </rect>
    <rect id="hg310" width="44.44444444444444" height="44.44444444444444" x="177.77777777777777" y="711.1111111111112">
    </rect>
    <rect id="hg311" width="44.44444444444444" height="44.44444444444444" x="222.22222222222223" y="711.1111111111112">
    </rect>
    <rect id="hg312" width="44.44444444444444" height="44.44444444444444" x="266.6666666666667" y="711.1111111111112">
    </rect>
    <rect id="hg313" width="44.44444444444444" height="44.44444444444444" x="311.11111111111114" y="711.1111111111112">
    </rect>
    <rect id="hg314" width="44.44444444444444" height="44.44444444444444" x="355.5555555555556" y="711.1111111111112">
    </rect>
    <rect id="hg315" width="44.44444444444444" height="44.44444444444444" x="400.00000000000006" y="711.1111111111112">
    </rect>
    <rect id="hg316" width="44.44444444444444" height="44.44444444444444" x="444.4444444444445" y="711.1111111111112">
    </rect>
    <rect id="hg317" width="44.44444444444444" height="44.44444444444444" x="488.88888888888897" y="711.1111111111112">
    </rect>
    <rect id="hg318" width="44.44444444444444" height="44.44444444444444" x="533.3333333333334" y="711.1111111111112">
    </rect>
    <rect id="hg319" width="44.44444444444444" height="44.44444444444444" x="577.7777777777778" y="711.1111111111112">
    </rect>
    <rect id="hg320" width="44.44444444444444" height="44.44444444444444" x="622.2222222222223" y="711.1111111111112">
    </rect>
    <rect id="hg321" width="44.44444444444444" height="44.44444444444444" x="666.6666666666667" y="711.1111111111112">
    </rect>
    <rect id="hg322" width="44.44444444444444" height="44.44444444444444" x="711.1111111111112" y="711.1111111111112">
    </rect>
    <rect id="hg323" width="44.44444444444444" height="44.44444444444444" x="755.5555555555557" y="711.1111111111112">
    </rect>
    <rect id="hg324" width="44.44444444444444" height="44.44444444444444" x="800.0000000000001" y="711.1111111111112">
    </rect>
    <rect id="hg325" width="44.44444444444444" height="44.44444444444444" x="0" y="755.5555555555557"></rect>
    <rect id="hg326" width="44.44444444444444" height="44.44444444444444" x="44.44444444444444" y="755.5555555555557">
    </rect>
    <rect id="hg327" width="44.44444444444444" height="44.44444444444444" x="88.88888888888889" y="755.5555555555557">
    </rect>
    <rect id="hg328" width="44.44444444444444" height="44.44444444444444" x="133.33333333333331" y="755.5555555555557">
    </rect>
    <rect id="hg329" width="44.44444444444444" height="44.44444444444444" x="177.77777777777777" y="755.5555555555557">
    </rect>
    <rect id="hg330" width="44.44444444444444" height="44.44444444444444" x="222.22222222222223" y="755.5555555555557">
    </rect>
    <rect id="hg331" width="44.44444444444444" height="44.44444444444444" x="266.6666666666667" y="755.5555555555557">
    </rect>
    <rect id="hg332" width="44.44444444444444" height="44.44444444444444" x="311.11111111111114" y="755.5555555555557">
    </rect>
    <rect id="hg333" width="44.44444444444444" height="44.44444444444444" x="355.5555555555556" y="755.5555555555557">
    </rect>
    <rect id="hg334" width="44.44444444444444" height="44.44444444444444" x="400.00000000000006" y="755.5555555555557">
    </rect>
    <rect id="hg335" width="44.44444444444444" height="44.44444444444444" x="444.4444444444445" y="755.5555555555557">
    </rect>
    <rect id="hg336" width="44.44444444444444" height="44.44444444444444" x="488.88888888888897" y="755.5555555555557">
    </rect>
    <rect id="hg337" width="44.44444444444444" height="44.44444444444444" x="533.3333333333334" y="755.5555555555557">
    </rect>
    <rect id="hg338" width="44.44444444444444" height="44.44444444444444" x="577.7777777777778" y="755.5555555555557">
    </rect>
    <rect id="hg339" width="44.44444444444444" height="44.44444444444444" x="622.2222222222223" y="755.5555555555557">
    </rect>
    <rect id="hg340" width="44.44444444444444" height="44.44444444444444" x="666.6666666666667" y="755.5555555555557">
    </rect>
    <rect id="hg341" width="44.44444444444444" height="44.44444444444444" x="711.1111111111112" y="755.5555555555557">
    </rect>
    <rect id="hg342" width="44.44444444444444" height="44.44444444444444" x="755.5555555555557" y="755.5555555555557">
    </rect>
    <rect id="hg343" width="44.44444444444444" height="44.44444444444444" x="800.0000000000001" y="755.5555555555557">
    </rect>
    <rect id="hg344" width="44.44444444444444" height="44.44444444444444" x="0" y="800.0000000000001"></rect>
    <rect id="hg345" width="44.44444444444444" height="44.44444444444444" x="44.44444444444444" y="800.0000000000001">
    </rect>
    <rect id="hg346" width="44.44444444444444" height="44.44444444444444" x="88.88888888888889" y="800.0000000000001">
    </rect>
    <rect id="hg347" width="44.44444444444444" height="44.44444444444444" x="133.33333333333331" y="800.0000000000001">
    </rect>
    <rect id="hg348" width="44.44444444444444" height="44.44444444444444" x="177.77777777777777" y="800.0000000000001">
    </rect>
    <rect id="hg349" width="44.44444444444444" height="44.44444444444444" x="222.22222222222223" y="800.0000000000001">
    </rect>
    <rect id="hg350" width="44.44444444444444" height="44.44444444444444" x="266.6666666666667" y="800.0000000000001">
    </rect>
    <rect id="hg351" width="44.44444444444444" height="44.44444444444444" x="311.11111111111114" y="800.0000000000001">
    </rect>
    <rect id="hg352" width="44.44444444444444" height="44.44444444444444" x="355.5555555555556" y="800.0000000000001">
    </rect>
    <rect id="hg353" width="44.44444444444444" height="44.44444444444444" x="400.00000000000006" y="800.0000000000001">
    </rect>
    <rect id="hg354" width="44.44444444444444" height="44.44444444444444" x="444.4444444444445" y="800.0000000000001">
    </rect>
    <rect id="hg355" width="44.44444444444444" height="44.44444444444444" x="488.88888888888897" y="800.0000000000001">
    </rect>
    <rect id="hg356" width="44.44444444444444" height="44.44444444444444" x="533.3333333333334" y="800.0000000000001">
    </rect>
    <rect id="hg357" width="44.44444444444444" height="44.44444444444444" x="577.7777777777778" y="800.0000000000001">
    </rect>
    <rect id="hg358" width="44.44444444444444" height="44.44444444444444" x="622.2222222222223" y="800.0000000000001">
    </rect>
    <rect id="hg359" width="44.44444444444444" height="44.44444444444444" x="666.6666666666667" y="800.0000000000001">
    </rect>
    <rect id="hg360" width="44.44444444444444" height="44.44444444444444" x="711.1111111111112" y="800.0000000000001">
    </rect>
    <rect id="hg361" width="44.44444444444444" height="44.44444444444444" x="755.5555555555557" y="800.0000000000001">
    </rect>
    <rect id="hg362" width="44.44444444444444" height="44.44444444444444" x="800.0000000000001" y="800.0000000000001">
    </rect>
  </g>
</svg>